#N struct 1331-scope float x float y float x1 float y1 float c1 float c2 float c3 float c4 array vector-min 1331-scope-element array vector-max 1331-scope-element float curx;
#N struct 1331-scope-element float y;
#N canvas 0 157 1404 715 10;
#X obj 64 55 adc~ 3 4 5 6 7 8 9 10, f 60;
#X obj 64 105 dac~ 3 4 5 6 7 8 9 10, f 60;
#X obj 1176 684 led-bargraph, f 60;
#X obj 54 140 buttons, f 37;
#X obj 62 29 initialise_digitals;
#X obj 984 704 phasor~ 1;
#X obj 54 167 s pep_button1;
#X obj 167 167 s pep_button2;
#X obj 283 172 s pep_button3;
#X obj 400 166 s pep_button4;
#X obj 84 815 dac~;
#X obj 592 124 bng 16 250 50 0 empty empty empty 0 -8 0 10 #fcfcfc #000000 #000000;
#X obj 531 164 s 3-play_one_grain_rcv;
#X obj 824 108 print button4;
#X obj 596 45 r pep_button4;
#X obj 1103 322 bela_scope~;
#X floatatom 818 323 5 0 0 0 - - - 0;
#X obj 820 348 s 3-sample_offset_rcv;
#X obj 983 648 adc~ 10;
#X floatatom 824 443 5 0 0 0 - - - 0;
#X floatatom 983 446 5 0 0 0 - - - 0;
#X obj 819 265 adc~ 3;
#X obj 985 738 dac~ 10;
#X obj 853 956 dac~ 3;
#X obj 964 996 dac~ 4;
#X text 438 102 out;
#X text 439 59 in/knobs;
#X obj 819 290 ys.snapshot;
#X obj 983 420 ys.snapshot;
#X obj 824 417 ys.snapshot;
#X text 855 21 knob 1 - sample offset;
#X text 856 35 knob 2 - pitch;
#X obj 822 388 adc~ 5;
#X text 857 52 knob 3 - size;
#X text 857 72 knob 4 -;
#X text 556 15 buttons: record \, random file \, reverse?;
#X obj 982 382 adc~ 6;
#X obj 826 515 adc~ 7;
#X obj 971 350 s 3-offset_random_rcv;
#X floatatom 974 321 5 0 0 0 - - - 0;
#X obj 975 288 ys.snapshot;
#X obj 975 263 adc~ 4;
#X obj 828 474 s 3-grain_pitch_rcv;
#X obj 985 477 s 3-random_pitch_rcv;
#X floatatom 824 575 5 0 0 0 - - - 0;
#X obj 824 549 ys.snapshot;
#X obj 826 606 s 3-grain_size_rcv;
#X floatatom 980 584 5 0 0 0 - - - 0;
#X obj 980 558 ys.snapshot;
#X obj 982 524 adc~ 8;
#X obj 982 615 s 3-random_panning_rcv;
#X obj 939 162 tgl 16 0 empty empty empty 0 -8 0 10 #fcfcfc #000000 #000000 0 1;
#X obj 939 183 s bela_off;
#X obj 983 674 *~ 40;
#X obj 830 640 adc~ 9;
#X obj 833 703 phasor~;
#X obj 834 673 *~ 4;
#X obj 834 737 dac~ 9;
#X obj 835 865 dac~ 6;
#X obj 845 769 osc~ 0.5;
#X obj 845 790 +~ 1;
#X obj 845 811 /~ 2;
#X obj 919 813 +~ 1;
#X obj 919 834 /~ 2;
#X obj 923 865 dac~ 7;
#X obj 919 792 osc~ 0.1;
#X obj 998 818 +~ 1;
#X obj 998 839 /~ 2;
#X obj 1002 870 dac~ 8;
#X obj 998 797 osc~ 2;
#X obj 592 75 change;
#X obj 590 101 sel 1;
#X obj 438 535 s 3-record_rcv;
#X obj 556 361 tgl 16 0 empty empty empty 0 -8 0 10 #fcfcfc #000000 #000000 0 1;
#X obj 851 906 r all_locations;
#X obj 853 933 sig~;
#X obj 957 906 r all_pitches;
#X floatatom 957 927 5 0 0 0 - - - 0;
#X obj 957 947 / 4;
#X obj 961 970 sig~;
#X obj 361 985 print;
#X obj 335 749 loadbang;
#X msg 335 770 0.3;
#X obj 686 474 bng 16 250 50 0 empty empty empty 0 -8 0 10 #fcfcfc #000000 #000000;
#X obj 683 431 sel 1;
#X obj 1188 376 * 10;
#X obj 1182 354 r all_locations;
#X obj 1188 397 i;
#X obj 1214 394 sel 0 1 2 3 4 5 6 7 8 9, f 68;
#X obj 1180 447 t b b;
#X obj 1167 473 delay 50;
#X msg 1229 476 1;
#X msg 1167 494 0;
#X obj 1167 515 tgl 16 0 empty empty empty 0 -8 0 10 #fcfcfc #000000 #000000 0 1;
#X obj 1278 452 t b b;
#X obj 1265 478 delay 50;
#X msg 1327 481 1;
#X msg 1265 499 0;
#X obj 1265 520 tgl 16 0 empty empty empty 0 -8 0 10 #fcfcfc #000000 #000000 0 1;
#X obj 1376 457 t b b;
#X obj 1363 483 delay 50;
#X msg 1425 486 1;
#X msg 1363 504 0;
#X obj 1363 525 tgl 16 0 empty empty empty 0 -8 0 10 #fcfcfc #000000 #000000 0 1;
#X obj 1474 462 t b b;
#X obj 1461 488 delay 50;
#X msg 1523 491 1;
#X msg 1461 509 0;
#X obj 1461 530 tgl 16 0 empty empty empty 0 -8 0 10 #fcfcfc #000000 #000000 0 1;
#X obj 1569 468 t b b;
#X obj 1556 494 delay 50;
#X msg 1618 497 1;
#X msg 1556 515 0;
#X obj 1556 536 tgl 16 0 empty empty empty 0 -8 0 10 #fcfcfc #000000 #000000 0 1;
#X obj 1208 550 t b b;
#X obj 1195 576 delay 50;
#X msg 1257 579 1;
#X msg 1195 597 0;
#X obj 1195 618 tgl 16 0 empty empty empty 0 -8 0 10 #fcfcfc #000000 #000000 0 1;
#X obj 1306 555 t b b;
#X obj 1293 581 delay 50;
#X msg 1355 584 1;
#X msg 1293 602 0;
#X obj 1293 623 tgl 16 0 empty empty empty 0 -8 0 10 #fcfcfc #000000 #000000 0 1;
#X obj 1404 560 t b b;
#X obj 1391 586 delay 50;
#X msg 1453 589 1;
#X msg 1391 607 0;
#X obj 1391 628 tgl 16 0 empty empty empty 0 -8 0 10 #fcfcfc #000000 #000000 0 1;
#X obj 1502 565 t b b;
#X obj 1489 591 delay 50;
#X msg 1551 594 1;
#X msg 1489 612 0;
#X obj 1489 633 tgl 16 0 empty empty empty 0 -8 0 10 #fcfcfc #000000 #000000 0 1;
#X obj 1597 571 t b b;
#X obj 1584 597 delay 50;
#X msg 1646 600 1;
#X msg 1584 618 0;
#X obj 1584 639 tgl 16 0 empty empty empty 0 -8 0 10 #fcfcfc #000000 #000000 0 1;
#X obj 572 434 print record;
#X obj 555 331 change;
#X obj 692 562 s 3-sample_load;
#X obj 684 509 random 14;
#X msg 684 530 sounds/\$1.wav;
#X obj 58 241 ys.granular_main 3 sounds/0.wav;
#X text 1069 16 out 0 - controlled random from location;
#X text 1071 35 out 1 - controlled random from pitch;
#X obj 1110 137 dac~;
#X obj 685 367 r pep_button1;
#X obj 684 165 print button4;
#X obj 589 534 send muteall;
#X obj 555 301 r pep_button2;
#X obj 687 204 random 100;
#X obj 687 225 / 100;
#X obj 688 268 sig~;
#X obj 691 294 dac~ 5;
#X obj 683 616 print soundload;
#X obj 451 369 sel 0 1;
#X obj 504 435 t b b;
#X msg 594 487 1;
#X msg 513 487 1;
#X obj 430 413 t b b;
#X msg 630 491 0;
#X msg 476 482 0;
#X obj 475 628 r pep_button3;
#X obj 461 714 change;
#X obj 685 388 change;
#X obj 510 409 tgl 16 0 empty empty empty 0 -8 0 10 #fcfcfc #000000 #000000 0 1;
#X obj 479 800 s 3-record_rcv;
#X obj 468 749 sel 0 1;
#X obj 571 758 tgl 16 0 empty empty empty 0 -8 0 10 #fcfcfc #000000 #000000 0 1;
#X obj 586 796 print record;
#X obj 543 687 print button3;
#X obj 493 248 adc~;
#X obj 493 312 dac~;
#X connect 3 0 6 0;
#X connect 3 1 7 0;
#X connect 3 2 8 0;
#X connect 3 3 9 0;
#X connect 5 0 22 0;
#X connect 11 0 12 0;
#X connect 11 0 152 0;
#X connect 14 0 70 0;
#X connect 16 0 17 0;
#X connect 18 0 53 0;
#X connect 19 0 42 0;
#X connect 20 0 43 0;
#X connect 21 0 27 0;
#X connect 21 0 15 0;
#X connect 27 0 16 0;
#X connect 28 0 20 0;
#X connect 29 0 19 0;
#X connect 32 0 15 2;
#X connect 32 0 29 0;
#X connect 36 0 15 3;
#X connect 36 0 28 0;
#X connect 37 0 45 0;
#X connect 39 0 38 0;
#X connect 40 0 39 0;
#X connect 41 0 15 1;
#X connect 41 0 40 0;
#X connect 44 0 46 0;
#X connect 45 0 44 0;
#X connect 47 0 50 0;
#X connect 48 0 47 0;
#X connect 49 0 48 0;
#X connect 51 0 52 0;
#X connect 53 0 5 0;
#X connect 54 0 56 0;
#X connect 55 0 57 0;
#X connect 56 0 55 0;
#X connect 59 0 60 0;
#X connect 60 0 61 0;
#X connect 61 0 58 0;
#X connect 62 0 63 0;
#X connect 63 0 64 0;
#X connect 65 0 62 0;
#X connect 66 0 67 0;
#X connect 67 0 68 0;
#X connect 69 0 66 0;
#X connect 70 0 71 0;
#X connect 71 0 11 0;
#X connect 74 0 75 0;
#X connect 75 0 23 0;
#X connect 76 0 77 0;
#X connect 77 0 78 0;
#X connect 78 0 79 0;
#X connect 79 0 24 0;
#X connect 81 0 82 0;
#X connect 83 0 142 0;
#X connect 84 0 83 0;
#X connect 85 0 87 0;
#X connect 86 0 85 0;
#X connect 87 0 88 0;
#X connect 88 0 89 0;
#X connect 88 1 94 0;
#X connect 88 2 99 0;
#X connect 88 3 104 0;
#X connect 88 4 109 0;
#X connect 88 5 114 0;
#X connect 88 6 119 0;
#X connect 88 7 124 0;
#X connect 88 8 129 0;
#X connect 88 9 134 0;
#X connect 89 0 90 0;
#X connect 89 1 91 0;
#X connect 90 0 92 0;
#X connect 91 0 93 0;
#X connect 92 0 93 0;
#X connect 93 0 2 0;
#X connect 94 0 95 0;
#X connect 94 1 96 0;
#X connect 95 0 97 0;
#X connect 96 0 98 0;
#X connect 97 0 98 0;
#X connect 98 0 2 1;
#X connect 99 0 100 0;
#X connect 99 1 101 0;
#X connect 100 0 102 0;
#X connect 101 0 103 0;
#X connect 102 0 103 0;
#X connect 103 0 2 2;
#X connect 104 0 105 0;
#X connect 104 1 106 0;
#X connect 105 0 107 0;
#X connect 106 0 108 0;
#X connect 107 0 108 0;
#X connect 108 0 2 3;
#X connect 109 0 110 0;
#X connect 109 1 111 0;
#X connect 110 0 112 0;
#X connect 111 0 113 0;
#X connect 112 0 113 0;
#X connect 113 0 2 4;
#X connect 114 0 115 0;
#X connect 114 1 116 0;
#X connect 115 0 117 0;
#X connect 116 0 118 0;
#X connect 117 0 118 0;
#X connect 118 0 2 5;
#X connect 119 0 120 0;
#X connect 119 1 121 0;
#X connect 120 0 122 0;
#X connect 121 0 123 0;
#X connect 122 0 123 0;
#X connect 123 0 2 6;
#X connect 124 0 125 0;
#X connect 124 1 126 0;
#X connect 125 0 127 0;
#X connect 126 0 128 0;
#X connect 127 0 128 0;
#X connect 128 0 2 7;
#X connect 129 0 130 0;
#X connect 129 1 131 0;
#X connect 130 0 132 0;
#X connect 131 0 133 0;
#X connect 132 0 133 0;
#X connect 133 0 2 8;
#X connect 134 0 135 0;
#X connect 134 1 136 0;
#X connect 135 0 137 0;
#X connect 136 0 138 0;
#X connect 137 0 138 0;
#X connect 138 0 2 9;
#X connect 140 0 73 0;
#X connect 142 0 143 0;
#X connect 143 0 141 0;
#X connect 143 0 156 0;
#X connect 144 0 10 0;
#X connect 144 1 10 1;
#X connect 148 0 166 0;
#X connect 151 0 140 0;
#X connect 152 0 153 0;
#X connect 153 0 154 0;
#X connect 154 0 155 0;
#X connect 157 1 167 0;
#X connect 158 0 160 0;
#X connect 158 1 159 0;
#X connect 160 0 72 0;
#X connect 161 0 162 0;
#X connect 161 1 163 0;
#X connect 163 0 72 0;
#X connect 164 0 172 0;
#X connect 164 0 170 0;
#X connect 165 0 169 0;
#X connect 166 0 84 0;
#X connect 167 0 72 0;
#X connect 170 0 168 0;
#X connect 170 0 171 0;
