#N struct 1014-scope float x float y float x1 float y1 float c1 float c2 float c3 float c4 array vector-min 1014-scope-element array vector-max 1014-scope-element float curx;
#N struct 1014-scope-element float y;
#N canvas 0 25 1404 715 10;
#X obj 54 140 buttons, f 47;
#X obj 54 79 initialise_digitals;
#X obj 54 167 s pep_button1;
#X obj 146 167 s pep_button2;
#X obj 237 169 s pep_button3;
#X obj 331 169 s pep_button4;
#X obj 101 287 dac~;
#X obj 521 241 bng 16 250 50 0 empty empty empty 0 -8 0 10 #fcfcfc #000000 #000000;
#X obj 520 268 s 3-play_one_grain_rcv;
#X obj 525 162 r pep_button4;
#X obj 314 508 bela_scope~;
#X floatatom 57 404 5 0 0 0 - - - 0;
#X obj 59 429 s 3-sample_offset_rcv;
#X obj 479 562 adc~ 10;
#X floatatom 63 524 5 0 0 0 - - - 0;
#X floatatom 222 527 5 0 0 0 - - - 0;
#X obj 58 346 adc~ 3;
#X obj 58 371 ys.snapshot;
#X obj 222 501 ys.snapshot;
#X obj 63 498 ys.snapshot;
#X obj 61 469 adc~ 5;
#X obj 221 463 adc~ 6;
#X obj 65 596 adc~ 7;
#X obj 210 431 s 3-offset_random_rcv;
#X floatatom 213 402 5 0 0 0 - - - 0;
#X obj 214 369 ys.snapshot;
#X obj 214 344 adc~ 4;
#X obj 67 555 s 3-grain_pitch_rcv;
#X obj 224 558 s 3-random_pitch_rcv;
#X floatatom 63 656 5 0 0 0 - - - 0;
#X obj 63 630 ys.snapshot;
#X obj 65 687 s 3-grain_size_rcv;
#X floatatom 219 665 5 0 0 0 - - - 0;
#X obj 219 639 ys.snapshot;
#X obj 221 605 adc~ 8;
#X obj 221 696 s 3-random_panning_rcv;
#X obj 521 192 change;
#X obj 519 218 sel 1;
#X obj 674 251 bng 16 250 50 0 empty empty empty 0 -8 0 10 #fcfcfc #000000 #000000;
#X obj 671 208 sel 1;
#X obj 680 339 s 3-sample_load;
#X obj 58 241 ys.granular_main 3 sounds/0.wav;
#X obj 673 144 r pep_button1;
#X obj 671 393 print soundload;
#X obj 530 300 r pep_button3;
#X obj 673 165 change;
#X obj 519 375 s 3-record_rcv;
#X obj 534 336 tgl 16 0 empty empty empty 0 -8 0 10 #fcfcfc #000000 #000000 0 1;
#X obj 550 357 print record;
#X msg 672 307 sounds/\$1_.wav;
#X obj 731 217 loadbang;
#X obj 672 286 random 1133;
#X obj 482 764 dac~ 3 4 5 6 7 8 9 10, f 84;
#X obj 481 731 phasor~;
#X obj 545 732 phasor~;
#X obj 620 730 phasor~;
#X obj 692 728 phasor~;
#X obj 765 728 phasor~;
#X obj 837 726 phasor~;
#X obj 901 724 phasor~;
#X obj 981 723 phasor~;
#X obj 474 676 *~ 2;
#X obj 551 682 *~ 3;
#X obj 615 691 *~ 4;
#X obj 686 693 *~ 6;
#X obj 760 691 *~ 8;
#X obj 836 690 *~ 12;
#X obj 895 686 *~ 16;
#X obj 983 691 *~ 32;
#N canvas 63 88 930 531 LEDbargraph 0;
#X obj 97 375 led-bargraph, f 60;
#X obj 136 38 * 10;
#X obj 130 16 r all_locations;
#X obj 136 59 i;
#X obj 135 85 sel 0 1 2 3 4 5 6 7 8 9, f 68;
#X obj 101 138 t b b;
#X obj 88 164 delay 50;
#X msg 150 167 1;
#X msg 88 185 0;
#X obj 88 206 tgl 16 0 empty empty empty 0 -8 0 10 #fcfcfc #000000 #000000 0 1;
#X obj 199 143 t b b;
#X obj 186 169 delay 50;
#X msg 248 172 1;
#X msg 186 190 0;
#X obj 186 211 tgl 16 0 empty empty empty 0 -8 0 10 #fcfcfc #000000 #000000 0 1;
#X obj 297 148 t b b;
#X obj 284 174 delay 50;
#X msg 346 177 1;
#X msg 284 195 0;
#X obj 284 216 tgl 16 0 empty empty empty 0 -8 0 10 #fcfcfc #000000 #000000 0 1;
#X obj 395 153 t b b;
#X obj 382 179 delay 50;
#X msg 444 182 1;
#X msg 382 200 0;
#X obj 382 221 tgl 16 0 empty empty empty 0 -8 0 10 #fcfcfc #000000 #000000 0 1;
#X obj 490 159 t b b;
#X obj 477 185 delay 50;
#X msg 539 188 1;
#X msg 477 206 0;
#X obj 477 227 tgl 16 0 empty empty empty 0 -8 0 10 #fcfcfc #000000 #000000 0 1;
#X obj 129 241 t b b;
#X obj 116 267 delay 50;
#X msg 178 270 1;
#X msg 116 288 0;
#X obj 116 309 tgl 16 0 empty empty empty 0 -8 0 10 #fcfcfc #000000 #000000 0 1;
#X obj 227 246 t b b;
#X obj 214 272 delay 50;
#X msg 276 275 1;
#X msg 214 293 0;
#X obj 214 314 tgl 16 0 empty empty empty 0 -8 0 10 #fcfcfc #000000 #000000 0 1;
#X obj 325 251 t b b;
#X obj 312 277 delay 50;
#X msg 374 280 1;
#X msg 312 298 0;
#X obj 312 319 tgl 16 0 empty empty empty 0 -8 0 10 #fcfcfc #000000 #000000 0 1;
#X obj 423 256 t b b;
#X obj 410 282 delay 50;
#X msg 472 285 1;
#X msg 410 303 0;
#X obj 410 324 tgl 16 0 empty empty empty 0 -8 0 10 #fcfcfc #000000 #000000 0 1;
#X obj 518 262 t b b;
#X obj 505 288 delay 50;
#X msg 567 291 1;
#X msg 505 309 0;
#X obj 505 330 tgl 16 0 empty empty empty 0 -8 0 10 #fcfcfc #000000 #000000 0 1;
#X text 297 12 a thing that sort of displays the grain location on the LED screen on the Pepper. Works well enough!;
#X connect 1 0 3 0;
#X connect 2 0 1 0;
#X connect 3 0 4 0;
#X connect 4 0 5 0;
#X connect 4 1 10 0;
#X connect 4 2 15 0;
#X connect 4 3 20 0;
#X connect 4 4 25 0;
#X connect 4 5 30 0;
#X connect 4 6 35 0;
#X connect 4 7 40 0;
#X connect 4 8 45 0;
#X connect 4 9 50 0;
#X connect 5 0 6 0;
#X connect 5 1 7 0;
#X connect 6 0 8 0;
#X connect 7 0 9 0;
#X connect 8 0 9 0;
#X connect 9 0 0 0;
#X connect 10 0 11 0;
#X connect 10 1 12 0;
#X connect 11 0 13 0;
#X connect 12 0 14 0;
#X connect 13 0 14 0;
#X connect 14 0 0 1;
#X connect 15 0 16 0;
#X connect 15 1 17 0;
#X connect 16 0 18 0;
#X connect 17 0 19 0;
#X connect 18 0 19 0;
#X connect 19 0 0 2;
#X connect 20 0 21 0;
#X connect 20 1 22 0;
#X connect 21 0 23 0;
#X connect 22 0 24 0;
#X connect 23 0 24 0;
#X connect 24 0 0 3;
#X connect 25 0 26 0;
#X connect 25 1 27 0;
#X connect 26 0 28 0;
#X connect 27 0 29 0;
#X connect 28 0 29 0;
#X connect 29 0 0 4;
#X connect 30 0 31 0;
#X connect 30 1 32 0;
#X connect 31 0 33 0;
#X connect 32 0 34 0;
#X connect 33 0 34 0;
#X connect 34 0 0 5;
#X connect 35 0 36 0;
#X connect 35 1 37 0;
#X connect 36 0 38 0;
#X connect 37 0 39 0;
#X connect 38 0 39 0;
#X connect 39 0 0 6;
#X connect 40 0 41 0;
#X connect 40 1 42 0;
#X connect 41 0 43 0;
#X connect 42 0 44 0;
#X connect 43 0 44 0;
#X connect 44 0 0 7;
#X connect 45 0 46 0;
#X connect 45 1 47 0;
#X connect 46 0 48 0;
#X connect 47 0 49 0;
#X connect 48 0 49 0;
#X connect 49 0 0 8;
#X connect 50 0 51 0;
#X connect 50 1 52 0;
#X connect 51 0 53 0;
#X connect 52 0 54 0;
#X connect 53 0 54 0;
#X connect 54 0 0 9;
#X restore 53 112 pd LEDbargraph;
#X text 392 509 just for debugging;
#X text 855 89 knob/input 0 - sample offset;
#X text 856 103 knob/input 1 - sample offset random;
#X text 857 120 knob/input 2 - pitch;
#X text 855 135 knob/input 3 - pitch random;
#X text 859 222 knob 7 - trigger output frequency;
#X text 858 153 knob/input 4 - grain size;
#X text 858 168 knob/input 5 - random panning;
#X text 857 184 knob/input 6 - nothing?;
#X text 1083 222 -> outputs 0-7 are a clock divider based on this frequency;
#X text 601 579 clock divider output;
#X text 851 16 button 1 - new random sample;
#X text 853 33 button 2 - nothing;
#X text 857 200 input 7 - trigger one grain;
#X text 851 49 button 3 - hold to record a sample;
#X text 855 67 button 4 - play one grain;
#X connect 0 0 2 0;
#X connect 0 1 3 0;
#X connect 0 2 4 0;
#X connect 0 3 5 0;
#X connect 7 0 8 0;
#X connect 9 0 36 0;
#X connect 11 0 12 0;
#X connect 13 0 61 0;
#X connect 13 0 62 0;
#X connect 13 0 63 0;
#X connect 13 0 64 0;
#X connect 13 0 65 0;
#X connect 13 0 66 0;
#X connect 13 0 67 0;
#X connect 13 0 68 0;
#X connect 14 0 27 0;
#X connect 15 0 28 0;
#X connect 16 0 17 0;
#X connect 16 0 10 0;
#X connect 17 0 11 0;
#X connect 18 0 15 0;
#X connect 19 0 14 0;
#X connect 20 0 10 2;
#X connect 20 0 19 0;
#X connect 21 0 10 3;
#X connect 21 0 18 0;
#X connect 22 0 30 0;
#X connect 24 0 23 0;
#X connect 25 0 24 0;
#X connect 26 0 10 1;
#X connect 26 0 25 0;
#X connect 29 0 31 0;
#X connect 30 0 29 0;
#X connect 32 0 35 0;
#X connect 33 0 32 0;
#X connect 34 0 33 0;
#X connect 36 0 37 0;
#X connect 37 0 7 0;
#X connect 38 0 51 0;
#X connect 39 0 38 0;
#X connect 41 0 6 0;
#X connect 41 1 6 1;
#X connect 42 0 45 0;
#X connect 44 0 47 0;
#X connect 45 0 39 0;
#X connect 47 0 46 0;
#X connect 47 0 48 0;
#X connect 49 0 40 0;
#X connect 49 0 43 0;
#X connect 50 0 38 0;
#X connect 51 0 49 0;
#X connect 53 0 52 0;
#X connect 54 0 52 1;
#X connect 55 0 52 2;
#X connect 56 0 52 3;
#X connect 57 0 52 4;
#X connect 58 0 52 5;
#X connect 59 0 52 6;
#X connect 60 0 52 7;
#X connect 61 0 53 0;
#X connect 62 0 54 0;
#X connect 63 0 55 0;
#X connect 64 0 56 0;
#X connect 65 0 57 0;
#X connect 66 0 58 0;
#X connect 67 0 59 0;
#X connect 68 0 60 0;
