#N canvas 316 580 896 193 10;
#X obj 45 119 outlet;
#X text 705 84 Read buttons with debounce;
#X obj 44 69 f;
#X obj 185 119 outlet;
#X obj 184 69 f;
#X obj 45 36 r bela_digitalIn26;
#X obj 185 36 r bela_digitalIn25;
#X obj 335 119 outlet;
#X obj 334 69 f;
#X obj 475 119 outlet;
#X obj 474 69 f;
#X obj 335 36 r bela_digitalIn24;
#X obj 475 36 r bela_digitalIn23;
#X obj 73 68 delay 3;
#X obj 213 68 delay 50;
#X obj 503 68 delay 3;
#X obj 363 68 delay 50;
#X connect 2 0 0 0;
#X connect 4 0 3 0;
#X connect 5 0 2 1;
#X connect 5 0 13 0;
#X connect 6 0 4 1;
#X connect 6 0 14 0;
#X connect 8 0 7 0;
#X connect 10 0 9 0;
#X connect 11 0 8 1;
#X connect 11 0 16 0;
#X connect 12 0 10 1;
#X connect 12 0 15 0;
#X connect 13 0 2 0;
#X connect 14 0 4 0;
#X connect 15 0 10 0;
#X connect 16 0 8 0;
