#N canvas 685 25 450 300 10;
#X obj 123 126 snapshot~;
#X obj 214 67 tgl 15 0 empty empty empty 17 7 0 10 #fcfcfc #000000 #000000 0 1;
#X obj 213 19 loadbang;
#X floatatom 123 148 5 0 0 0 - - - 0;
#X obj 122 258 outlet;
#X obj 119 82 inlet~;
#X obj 278 55 i \$1;
#X obj 313 19 r bela_off;
#X obj 214 87 metro 50;
#X obj 288 143 r muteall;
#X obj 290 173 sel 0 1;
#X obj 283 247 switch~;
#X msg 272 211 1;
#X msg 301 211 0;
#X obj 236 154 loadbang;
#X connect 0 0 3 0;
#X connect 1 0 8 0;
#X connect 2 0 1 0;
#X connect 2 0 6 0;
#X connect 3 0 4 0;
#X connect 5 0 0 0;
#X connect 6 0 8 1;
#X connect 7 0 1 0;
#X connect 8 0 0 0;
#X connect 9 0 10 0;
#X connect 10 0 12 0;
#X connect 10 1 13 0;
#X connect 12 0 11 0;
#X connect 13 0 11 0;
#X connect 14 0 12 0;
